STARTFONT 2.1
FONT -artwiz-kates-medium-r-normal--14-140-75-75-m-70-ISO8859-1
SIZE 14 75 75
FONTBOUNDINGBOX 7 14 0 0
STARTPROPERTIES 21
POINT_SIZE 140
RESOLUTION_X 75
RESOLUTION_Y 75
WEIGHT 14
RESOLUTION 99
X_HEIGHT 14
QUAD_WIDTH 5
FONT_ASCENT 14
FONT_DESCENT 0
FOUNDRY "artwiz"
FAMILY_NAME "kates"
WEIGHT_NAME "medium"
SLANT "r"
SETWIDTH_NAME "normal"
ADD_STYLE_NAME ""
PIXEL_SIZE 14
SPACING "m"
AVERAGE_WIDTH 70
CHARSET_REGISTRY "ISO8859"
CHARSET_ENCODING "1"
_XMBDFED_INFO "Edited with xmbdfed 4.5."
ENDPROPERTIES
CHARS 256
STARTCHAR char0
ENCODING 0
SWIDTH 480 0
DWIDTH 7 0
BBX 0 0 0 0
BITMAP
ENDCHAR
STARTCHAR char1
ENCODING 1
SWIDTH 480 0
DWIDTH 7 0
BBX 7 14 0 0
BITMAP
FE
FE
FE
82
00
6C
6C
00
00
6C
7C
38
82
FE
ENDCHAR
STARTCHAR char2
ENCODING 2
SWIDTH 480 0
DWIDTH 7 0
BBX 7 10 0 1
BITMAP
7C
FE
92
92
FE
FE
92
82
C6
7C
ENDCHAR
STARTCHAR char3
ENCODING 3
SWIDTH 480 0
DWIDTH 7 0
BBX 7 7 0 2
BITMAP
44
EE
FE
FE
7C
38
10
ENDCHAR
STARTCHAR char4
ENCODING 4
SWIDTH 480 0
DWIDTH 7 0
BBX 7 7 0 1
BITMAP
10
38
7C
FE
7C
38
10
ENDCHAR
STARTCHAR char5
ENCODING 5
SWIDTH 480 0
DWIDTH 7 0
BBX 7 10 0 1
BITMAP
10
38
38
7C
FE
FE
D6
10
10
7C
ENDCHAR
STARTCHAR char6
ENCODING 6
SWIDTH 480 0
DWIDTH 7 0
BBX 7 7 0 2
BITMAP
10
38
54
FE
54
10
38
ENDCHAR
STARTCHAR char7
ENCODING 7
SWIDTH 480 0
DWIDTH 7 0
BBX 0 0 0 0
BITMAP
ENDCHAR
STARTCHAR char8
ENCODING 8
SWIDTH 480 0
DWIDTH 7 0
BBX 0 0 0 0
BITMAP
ENDCHAR
STARTCHAR char9
ENCODING 9
SWIDTH 480 0
DWIDTH 7 0
BBX 0 0 0 0
BITMAP
ENDCHAR
STARTCHAR char10
ENCODING 10
SWIDTH 480 0
DWIDTH 7 0
BBX 0 0 0 0
BITMAP
ENDCHAR
STARTCHAR char11
ENCODING 11
SWIDTH 480 0
DWIDTH 7 0
BBX 0 0 0 0
BITMAP
ENDCHAR
STARTCHAR char12
ENCODING 12
SWIDTH 480 0
DWIDTH 7 0
BBX 0 0 0 0
BITMAP
ENDCHAR
STARTCHAR char13
ENCODING 13
SWIDTH 480 0
DWIDTH 7 0
BBX 0 0 0 0
BITMAP
ENDCHAR
STARTCHAR char14
ENCODING 14
SWIDTH 480 0
DWIDTH 7 0
BBX 3 4 1 4
BITMAP
E0
E0
E0
E0
ENDCHAR
STARTCHAR char15
ENCODING 15
SWIDTH 480 0
DWIDTH 7 0
BBX 0 0 0 0
BITMAP
ENDCHAR
STARTCHAR char16
ENCODING 16
SWIDTH 480 0
DWIDTH 7 0
BBX 0 0 0 0
BITMAP
ENDCHAR
STARTCHAR char17
ENCODING 17
SWIDTH 480 0
DWIDTH 7 0
BBX 4 7 1 2
BITMAP
80
C0
E0
F0
E0
C0
80
ENDCHAR
STARTCHAR char18
ENCODING 18
SWIDTH 480 0
DWIDTH 7 0
BBX 4 7 2 2
BITMAP
10
30
70
F0
70
30
10
ENDCHAR
STARTCHAR char19
ENCODING 19
SWIDTH 480 0
DWIDTH 7 0
BBX 5 9 1 2
BITMAP
20
60
A0
20
20
20
20
F8
70
ENDCHAR
STARTCHAR char20
ENCODING 20
SWIDTH 480 0
DWIDTH 7 0
BBX 3 9 2 2
BITMAP
A0
A0
A0
A0
A0
A0
00
A0
A0
ENDCHAR
STARTCHAR char21
ENCODING 21
SWIDTH 480 0
DWIDTH 7 0
BBX 6 6 0 3
BITMAP
FC
84
E4
24
24
24
ENDCHAR
STARTCHAR char22
ENCODING 22
SWIDTH 480 0
DWIDTH 7 0
BBX 4 9 1 2
BITMAP
60
90
60
90
60
90
60
90
E0
ENDCHAR
STARTCHAR char23
ENCODING 23
SWIDTH 480 0
DWIDTH 7 0
BBX 5 2 1 2
BITMAP
F8
F8
ENDCHAR
STARTCHAR char24
ENCODING 24
SWIDTH 480 0
DWIDTH 7 0
BBX 5 8 1 2
BITMAP
20
70
20
20
70
20
20
F8
ENDCHAR
STARTCHAR char25
ENCODING 25
SWIDTH 480 0
DWIDTH 7 0
BBX 0 0 0 0
BITMAP
ENDCHAR
STARTCHAR char26
ENCODING 26
SWIDTH 480 0
DWIDTH 7 0
BBX 3 6 2 3
BITMAP
40
40
40
40
E0
40
ENDCHAR
STARTCHAR char27
ENCODING 27
SWIDTH 480 0
DWIDTH 7 0
BBX 0 0 0 0
BITMAP
ENDCHAR
STARTCHAR char28
ENCODING 28
SWIDTH 480 0
DWIDTH 7 0
BBX 5 3 1 4
BITMAP
80
80
F8
ENDCHAR
STARTCHAR char29
ENCODING 29
SWIDTH 480 0
DWIDTH 7 0
BBX 7 5 0 3
BITMAP
28
28
FE
28
28
ENDCHAR
STARTCHAR char30
ENCODING 30
SWIDTH 480 0
DWIDTH 7 0
BBX 7 4 0 3
BITMAP
10
38
7C
FE
ENDCHAR
STARTCHAR char31
ENCODING 31
SWIDTH 480 0
DWIDTH 7 0
BBX 7 4 0 4
BITMAP
FE
7C
38
10
ENDCHAR
STARTCHAR char32
ENCODING 32
SWIDTH 480 0
DWIDTH 7 0
BBX 0 0 0 0
BITMAP
ENDCHAR
STARTCHAR char33
ENCODING 33
SWIDTH 480 0
DWIDTH 7 0
BBX 1 9 3 2
BITMAP
80
80
80
80
80
80
00
80
80
ENDCHAR
STARTCHAR char34
ENCODING 34
SWIDTH 480 0
DWIDTH 7 0
BBX 4 3 1 8
BITMAP
90
90
90
ENDCHAR
STARTCHAR char35
ENCODING 35
SWIDTH 480 0
DWIDTH 7 0
BBX 7 10 0 1
BITMAP
28
28
28
FE
28
28
FE
28
28
28
ENDCHAR
STARTCHAR char36
ENCODING 36
SWIDTH 480 0
DWIDTH 7 0
BBX 7 11 0 0
BITMAP
10
10
7C
92
90
7C
12
92
7C
10
10
ENDCHAR
STARTCHAR char37
ENCODING 37
SWIDTH 480 0
DWIDTH 7 0
BBX 5 8 1 2
BITMAP
C8
88
10
20
20
40
88
98
ENDCHAR
STARTCHAR char38
ENCODING 38
SWIDTH 480 0
DWIDTH 7 0
BBX 6 8 0 2
BITMAP
60
90
90
60
A0
94
8C
78
ENDCHAR
STARTCHAR char39
ENCODING 39
SWIDTH 480 0
DWIDTH 7 0
BBX 2 3 1 8
BITMAP
40
40
80
ENDCHAR
STARTCHAR char40
ENCODING 40
SWIDTH 480 0
DWIDTH 7 0
BBX 3 10 1 1
BITMAP
20
40
80
80
80
80
80
80
40
20
ENDCHAR
STARTCHAR char41
ENCODING 41
SWIDTH 480 0
DWIDTH 7 0
BBX 3 10 3 1
BITMAP
80
40
20
20
20
20
20
20
40
80
ENDCHAR
STARTCHAR char42
ENCODING 42
SWIDTH 480 0
DWIDTH 7 0
BBX 5 7 1 2
BITMAP
20
A8
D8
20
D8
A8
20
ENDCHAR
STARTCHAR char43
ENCODING 43
SWIDTH 480 0
DWIDTH 7 0
BBX 5 7 1 2
BITMAP
20
20
20
F8
20
20
20
ENDCHAR
STARTCHAR char44
ENCODING 44
SWIDTH 480 0
DWIDTH 7 0
BBX 3 3 1 1
BITMAP
60
40
80
ENDCHAR
STARTCHAR char45
ENCODING 45
SWIDTH 480 0
DWIDTH 7 0
BBX 5 1 0 5
BITMAP
F8
ENDCHAR
STARTCHAR char46
ENCODING 46
SWIDTH 480 0
DWIDTH 7 0
BBX 1 2 2 2
BITMAP
80
80
ENDCHAR
STARTCHAR char47
ENCODING 47
SWIDTH 480 0
DWIDTH 7 0
BBX 5 10 1 2
BITMAP
08
08
10
10
20
20
40
40
80
80
ENDCHAR
STARTCHAR char48
ENCODING 48
SWIDTH 480 0
DWIDTH 7 0
BBX 5 9 1 2
BITMAP
70
88
88
88
00
88
88
88
70
ENDCHAR
STARTCHAR char49
ENCODING 49
SWIDTH 480 0
DWIDTH 7 0
BBX 1 9 4 2
BITMAP
80
80
80
80
00
80
80
80
80
ENDCHAR
STARTCHAR char50
ENCODING 50
SWIDTH 480 0
DWIDTH 7 0
BBX 5 9 1 2
BITMAP
70
08
08
08
70
80
80
80
70
ENDCHAR
STARTCHAR char51
ENCODING 51
SWIDTH 480 0
DWIDTH 7 0
BBX 4 9 1 2
BITMAP
E0
10
10
10
E0
10
10
10
E0
ENDCHAR
STARTCHAR char52
ENCODING 52
SWIDTH 480 0
DWIDTH 7 0
BBX 5 9 1 2
BITMAP
88
88
88
88
70
08
08
08
08
ENDCHAR
STARTCHAR char53
ENCODING 53
SWIDTH 480 0
DWIDTH 7 0
BBX 5 9 1 2
BITMAP
70
80
80
80
70
08
08
08
70
ENDCHAR
STARTCHAR char54
ENCODING 54
SWIDTH 480 0
DWIDTH 7 0
BBX 5 9 1 2
BITMAP
70
80
80
80
70
88
88
88
70
ENDCHAR
STARTCHAR char55
ENCODING 55
SWIDTH 480 0
DWIDTH 7 0
BBX 4 9 2 2
BITMAP
E0
10
10
10
00
10
10
10
10
ENDCHAR
STARTCHAR char56
ENCODING 56
SWIDTH 480 0
DWIDTH 7 0
BBX 5 9 1 2
BITMAP
70
88
88
88
70
88
88
88
70
ENDCHAR
STARTCHAR char57
ENCODING 57
SWIDTH 480 0
DWIDTH 7 0
BBX 5 9 1 2
BITMAP
70
88
88
88
70
08
08
08
08
ENDCHAR
STARTCHAR char58
ENCODING 58
SWIDTH 480 0
DWIDTH 7 0
BBX 1 6 3 2
BITMAP
80
80
00
00
80
80
ENDCHAR
STARTCHAR char59
ENCODING 59
SWIDTH 480 0
DWIDTH 7 0
BBX 2 7 2 1
BITMAP
40
40
00
00
40
40
80
ENDCHAR
STARTCHAR char60
ENCODING 60
SWIDTH 480 0
DWIDTH 7 0
BBX 5 9 1 1
BITMAP
08
10
20
40
80
40
20
10
08
ENDCHAR
STARTCHAR char61
ENCODING 61
SWIDTH 480 0
DWIDTH 7 0
BBX 5 3 1 4
BITMAP
F8
00
F8
ENDCHAR
STARTCHAR char62
ENCODING 62
SWIDTH 480 0
DWIDTH 7 0
BBX 5 9 1 1
BITMAP
80
40
20
10
08
10
20
40
80
ENDCHAR
STARTCHAR char63
ENCODING 63
SWIDTH 480 0
DWIDTH 7 0
BBX 5 8 1 2
BITMAP
F0
08
08
08
70
40
00
40
ENDCHAR
STARTCHAR char64
ENCODING 64
SWIDTH 480 0
DWIDTH 7 0
BBX 5 8 1 2
BITMAP
70
88
98
A8
A8
B0
80
78
ENDCHAR
STARTCHAR char65
ENCODING 65
SWIDTH 480 0
DWIDTH 7 0
BBX 6 10 0 2
BITMAP
C0
20
10
08
84
84
84
FC
84
84
ENDCHAR
STARTCHAR char66
ENCODING 66
SWIDTH 480 0
DWIDTH 7 0
BBX 6 10 0 2
BITMAP
F0
08
08
F8
84
84
84
84
84
F8
ENDCHAR
STARTCHAR char67
ENCODING 67
SWIDTH 480 0
DWIDTH 7 0
BBX 6 10 0 2
BITMAP
3C
40
80
80
80
80
80
80
80
7C
ENDCHAR
STARTCHAR char68
ENCODING 68
SWIDTH 480 0
DWIDTH 7 0
BBX 6 10 0 2
BITMAP
C0
20
10
88
84
84
84
84
88
F0
ENDCHAR
STARTCHAR char69
ENCODING 69
SWIDTH 480 0
DWIDTH 7 0
BBX 6 10 0 2
BITMAP
FC
00
00
80
80
F0
80
80
80
FC
ENDCHAR
STARTCHAR char70
ENCODING 70
SWIDTH 480 0
DWIDTH 7 0
BBX 6 10 0 2
BITMAP
FC
00
00
80
80
F0
80
80
80
80
ENDCHAR
STARTCHAR char71
ENCODING 71
SWIDTH 480 0
DWIDTH 7 0
BBX 6 10 0 2
BITMAP
78
84
80
80
80
80
9C
84
84
78
ENDCHAR
STARTCHAR char72
ENCODING 72
SWIDTH 480 0
DWIDTH 7 0
BBX 6 10 0 2
BITMAP
84
84
84
04
04
FC
84
84
84
84
ENDCHAR
STARTCHAR char73
ENCODING 73
SWIDTH 480 0
DWIDTH 7 0
BBX 5 10 0 2
BITMAP
F8
00
00
20
20
20
20
20
20
F8
ENDCHAR
STARTCHAR char74
ENCODING 74
SWIDTH 480 0
DWIDTH 7 0
BBX 5 10 0 2
BITMAP
F8
00
00
08
08
08
08
10
20
C0
ENDCHAR
STARTCHAR char75
ENCODING 75
SWIDTH 480 0
DWIDTH 7 0
BBX 6 10 0 2
BITMAP
80
88
90
A0
40
A0
90
88
84
84
ENDCHAR
STARTCHAR char76
ENCODING 76
SWIDTH 480 0
DWIDTH 7 0
BBX 6 10 0 2
BITMAP
80
80
80
80
80
80
80
80
80
FC
ENDCHAR
STARTCHAR char77
ENCODING 77
SWIDTH 480 0
DWIDTH 7 0
BBX 6 10 0 2
BITMAP
84
CC
7C
34
B4
94
84
84
84
84
ENDCHAR
STARTCHAR char78
ENCODING 78
SWIDTH 480 0
DWIDTH 7 0
BBX 6 10 0 2
BITMAP
84
C4
44
24
A4
94
94
8C
8C
84
ENDCHAR
STARTCHAR char79
ENCODING 79
SWIDTH 480 0
DWIDTH 7 0
BBX 6 10 0 2
BITMAP
78
04
04
84
84
84
84
84
84
78
ENDCHAR
STARTCHAR char80
ENCODING 80
SWIDTH 480 0
DWIDTH 7 0
BBX 6 10 0 2
BITMAP
F8
04
04
04
F8
80
80
80
80
80
ENDCHAR
STARTCHAR char81
ENCODING 81
SWIDTH 480 0
DWIDTH 7 0
BBX 6 11 0 1
BITMAP
78
04
04
84
84
84
84
A4
94
78
04
ENDCHAR
STARTCHAR char82
ENCODING 82
SWIDTH 480 0
DWIDTH 7 0
BBX 6 10 0 2
BITMAP
F0
08
08
08
F8
84
84
84
84
84
ENDCHAR
STARTCHAR char83
ENCODING 83
SWIDTH 480 0
DWIDTH 7 0
BBX 6 10 0 2
BITMAP
78
84
84
80
70
08
04
84
84
78
ENDCHAR
STARTCHAR char84
ENCODING 84
SWIDTH 480 0
DWIDTH 7 0
BBX 6 10 0 2
BITMAP
FC
00
00
10
10
10
10
10
10
10
ENDCHAR
STARTCHAR char85
ENCODING 85
SWIDTH 480 0
DWIDTH 7 0
BBX 6 10 0 2
BITMAP
84
84
04
04
84
84
84
84
84
78
ENDCHAR
STARTCHAR char86
ENCODING 86
SWIDTH 480 0
DWIDTH 7 0
BBX 6 10 0 2
BITMAP
84
84
04
04
84
88
90
A0
C0
80
ENDCHAR
STARTCHAR char87
ENCODING 87
SWIDTH 480 0
DWIDTH 7 0
BBX 6 10 0 2
BITMAP
84
84
04
04
84
84
A4
C4
9C
84
ENDCHAR
STARTCHAR char88
ENCODING 88
SWIDTH 480 0
DWIDTH 7 0
BBX 6 10 0 2
BITMAP
84
84
84
48
30
30
48
84
84
84
ENDCHAR
STARTCHAR char89
ENCODING 89
SWIDTH 480 0
DWIDTH 7 0
BBX 6 10 0 2
BITMAP
84
84
84
44
28
18
08
08
08
08
ENDCHAR
STARTCHAR char90
ENCODING 90
SWIDTH 480 0
DWIDTH 7 0
BBX 6 10 0 2
BITMAP
FC
00
00
04
08
10
20
40
80
FC
ENDCHAR
STARTCHAR char91
ENCODING 91
SWIDTH 480 0
DWIDTH 7 0
BBX 4 9 1 2
BITMAP
F0
80
80
80
80
80
80
80
F0
ENDCHAR
STARTCHAR char92
ENCODING 92
SWIDTH 480 0
DWIDTH 7 0
BBX 5 10 1 2
BITMAP
80
80
40
40
20
20
10
10
08
08
ENDCHAR
STARTCHAR char93
ENCODING 93
SWIDTH 480 0
DWIDTH 7 0
BBX 4 9 2 2
BITMAP
F0
10
10
10
10
10
10
10
F0
ENDCHAR
STARTCHAR char94
ENCODING 94
SWIDTH 480 0
DWIDTH 7 0
BBX 5 3 1 7
BITMAP
20
50
88
ENDCHAR
STARTCHAR char95
ENCODING 95
SWIDTH 480 0
DWIDTH 7 0
BBX 6 1 0 2
BITMAP
FC
ENDCHAR
STARTCHAR char96
ENCODING 96
SWIDTH 480 0
DWIDTH 7 0
BBX 2 3 1 7
BITMAP
80
80
40
ENDCHAR
STARTCHAR char97
ENCODING 97
SWIDTH 480 0
DWIDTH 7 0
BBX 6 6 0 2
BITMAP
38
04
84
84
88
74
ENDCHAR
STARTCHAR char98
ENCODING 98
SWIDTH 480 0
DWIDTH 7 0
BBX 6 10 0 2
BITMAP
80
80
80
80
78
04
84
84
84
78
ENDCHAR
STARTCHAR char99
ENCODING 99
SWIDTH 480 0
DWIDTH 7 0
BBX 5 6 0 2
BITMAP
78
80
80
80
80
78
ENDCHAR
STARTCHAR char100
ENCODING 100
SWIDTH 480 0
DWIDTH 7 0
BBX 6 10 0 2
BITMAP
04
04
04
04
78
80
84
84
84
7C
ENDCHAR
STARTCHAR char101
ENCODING 101
SWIDTH 480 0
DWIDTH 7 0
BBX 6 6 0 2
BITMAP
78
84
D4
A8
80
7C
ENDCHAR
STARTCHAR char102
ENCODING 102
SWIDTH 480 0
DWIDTH 7 0
BBX 6 10 0 2
BITMAP
1C
20
20
20
F8
20
20
20
20
20
ENDCHAR
STARTCHAR char103
ENCODING 103
SWIDTH 480 0
DWIDTH 7 0
BBX 6 8 0 0
BITMAP
78
84
84
84
7C
04
04
F8
ENDCHAR
STARTCHAR char104
ENCODING 104
SWIDTH 480 0
DWIDTH 7 0
BBX 6 10 0 2
BITMAP
80
80
80
00
78
84
84
84
84
84
ENDCHAR
STARTCHAR char105
ENCODING 105
SWIDTH 480 0
DWIDTH 7 0
BBX 2 10 2 2
BITMAP
40
40
00
00
C0
40
40
40
40
40
ENDCHAR
STARTCHAR char106
ENCODING 106
SWIDTH 480 0
DWIDTH 7 0
BBX 5 12 0 0
BITMAP
08
08
00
00
18
08
08
08
08
08
18
F0
ENDCHAR
STARTCHAR char107
ENCODING 107
SWIDTH 480 0
DWIDTH 7 0
BBX 6 9 0 2
BITMAP
80
80
90
20
40
A0
90
88
8C
ENDCHAR
STARTCHAR char108
ENCODING 108
SWIDTH 480 0
DWIDTH 7 0
BBX 4 9 1 2
BITMAP
C0
40
40
40
00
40
40
40
F0
ENDCHAR
STARTCHAR char109
ENCODING 109
SWIDTH 480 0
DWIDTH 7 0
BBX 6 6 0 2
BITMAP
F0
28
94
A4
94
A4
ENDCHAR
STARTCHAR char110
ENCODING 110
SWIDTH 480 0
DWIDTH 7 0
BBX 6 6 0 2
BITMAP
78
04
84
84
84
84
ENDCHAR
STARTCHAR char111
ENCODING 111
SWIDTH 480 0
DWIDTH 7 0
BBX 6 6 0 2
BITMAP
78
04
84
84
84
78
ENDCHAR
STARTCHAR char112
ENCODING 112
SWIDTH 480 0
DWIDTH 7 0
BBX 6 8 0 0
BITMAP
F8
04
04
04
F8
80
80
80
ENDCHAR
STARTCHAR char113
ENCODING 113
SWIDTH 480 0
DWIDTH 7 0
BBX 6 8 0 0
BITMAP
7C
80
80
80
7C
04
04
04
ENDCHAR
STARTCHAR char114
ENCODING 114
SWIDTH 480 0
DWIDTH 7 0
BBX 6 6 0 2
BITMAP
3C
40
80
80
80
80
ENDCHAR
STARTCHAR char115
ENCODING 115
SWIDTH 480 0
DWIDTH 7 0
BBX 6 6 0 2
BITMAP
7C
80
78
04
04
F8
ENDCHAR
STARTCHAR char116
ENCODING 116
SWIDTH 480 0
DWIDTH 7 0
BBX 6 9 0 2
BITMAP
20
20
00
FC
20
20
20
24
18
ENDCHAR
STARTCHAR char117
ENCODING 117
SWIDTH 480 0
DWIDTH 7 0
BBX 6 6 0 2
BITMAP
84
84
84
84
84
78
ENDCHAR
STARTCHAR char118
ENCODING 118
SWIDTH 480 0
DWIDTH 7 0
BBX 6 6 0 2
BITMAP
84
88
90
A0
C0
80
ENDCHAR
STARTCHAR char119
ENCODING 119
SWIDTH 480 0
DWIDTH 7 0
BBX 6 6 0 2
BITMAP
84
84
94
B4
DC
94
ENDCHAR
STARTCHAR char120
ENCODING 120
SWIDTH 480 0
DWIDTH 7 0
BBX 6 6 0 2
BITMAP
84
84
28
D4
84
84
ENDCHAR
STARTCHAR char121
ENCODING 121
SWIDTH 480 0
DWIDTH 7 0
BBX 6 8 0 0
BITMAP
84
84
84
84
84
78
08
F0
ENDCHAR
STARTCHAR char122
ENCODING 122
SWIDTH 480 0
DWIDTH 7 0
BBX 6 6 0 2
BITMAP
FC
04
2C
50
80
FC
ENDCHAR
STARTCHAR char123
ENCODING 123
SWIDTH 480 0
DWIDTH 7 0
BBX 5 10 1 1
BITMAP
38
40
40
40
80
80
40
40
40
38
ENDCHAR
STARTCHAR char124
ENCODING 124
SWIDTH 480 0
DWIDTH 7 0
BBX 1 10 3 1
BITMAP
80
80
80
80
00
00
80
80
80
80
ENDCHAR
STARTCHAR char125
ENCODING 125
SWIDTH 480 0
DWIDTH 7 0
BBX 5 10 1 1
BITMAP
E0
10
10
10
08
08
10
10
10
E0
ENDCHAR
STARTCHAR char126
ENCODING 126
SWIDTH 480 0
DWIDTH 7 0
BBX 6 2 0 7
BITMAP
98
64
ENDCHAR
STARTCHAR char127
ENCODING 127
SWIDTH 480 0
DWIDTH 7 0
BBX 6 9 0 1
BITMAP
30
30
78
78
84
84
84
84
FC
ENDCHAR
STARTCHAR char128
ENCODING 128
SWIDTH 480 0
DWIDTH 7 0
BBX 7 11 0 1
BITMAP
3C
42
80
80
8C
92
90
90
90
90
F0
ENDCHAR
STARTCHAR char129
ENCODING 129
SWIDTH 480 0
DWIDTH 7 0
BBX 7 9 0 1
BITMAP
82
42
22
12
8A
46
20
10
0E
ENDCHAR
STARTCHAR char130
ENCODING 130
SWIDTH 480 0
DWIDTH 7 0
BBX 2 8 0 2
BITMAP
C0
40
40
40
40
40
40
80
ENDCHAR
STARTCHAR char131
ENCODING 131
SWIDTH 480 0
DWIDTH 7 0
BBX 7 9 0 1
BITMAP
3E
40
BE
80
80
BE
BE
40
3E
ENDCHAR
STARTCHAR char132
ENCODING 132
SWIDTH 480 0
DWIDTH 7 0
BBX 7 9 0 1
BITMAP
FE
00
FE
20
20
FE
FE
00
FE
ENDCHAR
STARTCHAR char133
ENCODING 133
SWIDTH 480 0
DWIDTH 7 0
BBX 2 9 0 1
BITMAP
C0
40
C0
00
00
00
C0
40
C0
ENDCHAR
STARTCHAR char134
ENCODING 134
SWIDTH 480 0
DWIDTH 7 0
BBX 7 9 0 1
BITMAP
E0
38
46
38
56
38
46
38
E0
ENDCHAR
STARTCHAR char135
ENCODING 135
SWIDTH 480 0
DWIDTH 7 0
BBX 7 5 0 3
BITMAP
FE
00
00
00
FE
ENDCHAR
STARTCHAR char136
ENCODING 136
SWIDTH 480 0
DWIDTH 7 0
BBX 7 9 0 1
BITMAP
0E
38
C4
38
D4
38
C4
38
0E
ENDCHAR
STARTCHAR char137
ENCODING 137
SWIDTH 480 0
DWIDTH 7 0
BBX 1 8 0 1
BITMAP
80
80
00
00
00
00
80
80
ENDCHAR
STARTCHAR char138
ENCODING 138
SWIDTH 480 0
DWIDTH 7 0
BBX 7 9 0 1
BITMAP
E0
A0
A0
A0
A0
A0
BE
40
3E
ENDCHAR
STARTCHAR char139
ENCODING 139
SWIDTH 480 0
DWIDTH 7 0
BBX 7 8 0 1
BITMAP
0A
0A
0A
0A
0A
FA
02
FE
ENDCHAR
STARTCHAR char140
ENCODING 140
SWIDTH 480 0
DWIDTH 7 0
BBX 2 7 0 2
BITMAP
C0
40
40
40
40
40
80
ENDCHAR
STARTCHAR char141
ENCODING 141
SWIDTH 480 0
DWIDTH 7 0
BBX 7 9 0 1
BITMAP
7E
80
9E
80
7E
FE
80
80
FE
ENDCHAR
STARTCHAR char142
ENCODING 142
SWIDTH 480 0
DWIDTH 7 0
BBX 7 9 0 1
BITMAP
FE
00
FE
00
FE
FE
00
00
FE
ENDCHAR
STARTCHAR char143
ENCODING 143
SWIDTH 480 0
DWIDTH 7 0
BBX 3 9 0 1
BITMAP
C0
20
20
20
C0
E0
20
20
E0
ENDCHAR
STARTCHAR char144
ENCODING 144
SWIDTH 480 0
DWIDTH 7 0
BBX 7 14 0 0
BITMAP
10
38
6C
6C
C6
FE
BA
82
82
82
82
C6
7C
92
ENDCHAR
STARTCHAR char145
ENCODING 145
SWIDTH 480 0
DWIDTH 7 0
BBX 6 10 0 1
BITMAP
EC
0C
EC
C8
88
60
B0
80
A0
C0
ENDCHAR
STARTCHAR char146
ENCODING 146
SWIDTH 480 0
DWIDTH 7 0
BBX 6 11 1 1
BITMAP
04
1C
08
A0
A8
BC
B0
04
08
1C
04
ENDCHAR
STARTCHAR char147
ENCODING 147
SWIDTH 480 0
DWIDTH 7 0
BBX 7 11 0 2
BITMAP
02
86
EE
FC
38
38
7C
6E
C6
C0
80
ENDCHAR
STARTCHAR char148
ENCODING 148
SWIDTH 480 0
DWIDTH 7 0
BBX 7 14 0 0
BITMAP
FE
82
82
82
82
82
82
82
82
82
82
82
82
FE
ENDCHAR
STARTCHAR char149
ENCODING 149
SWIDTH 480 0
DWIDTH 7 0
BBX 7 14 0 0
BITMAP
FE
82
82
82
82
82
82
82
82
82
82
82
82
FE
ENDCHAR
STARTCHAR char150
ENCODING 150
SWIDTH 480 0
DWIDTH 7 0
BBX 7 14 0 0
BITMAP
FE
82
82
82
82
82
82
82
82
82
82
82
82
FE
ENDCHAR
STARTCHAR char151
ENCODING 151
SWIDTH 480 0
DWIDTH 7 0
BBX 7 14 0 0
BITMAP
FE
82
82
82
82
82
82
82
82
82
82
82
82
FE
ENDCHAR
STARTCHAR char152
ENCODING 152
SWIDTH 480 0
DWIDTH 7 0
BBX 7 14 0 0
BITMAP
FE
82
82
82
82
82
82
82
82
82
82
82
82
FE
ENDCHAR
STARTCHAR char153
ENCODING 153
SWIDTH 480 0
DWIDTH 7 0
BBX 7 14 0 0
BITMAP
FE
82
82
82
82
82
82
82
82
82
82
82
82
FE
ENDCHAR
STARTCHAR char154
ENCODING 154
SWIDTH 480 0
DWIDTH 7 0
BBX 7 14 0 0
BITMAP
FE
82
82
82
82
82
82
82
82
82
82
82
82
FE
ENDCHAR
STARTCHAR char155
ENCODING 155
SWIDTH 480 0
DWIDTH 7 0
BBX 6 8 0 1
BITMAP
10
7C
90
90
90
90
7C
10
ENDCHAR
STARTCHAR char156
ENCODING 156
SWIDTH 480 0
DWIDTH 7 0
BBX 6 10 0 1
BITMAP
38
44
44
40
40
40
F8
40
40
BC
ENDCHAR
STARTCHAR char157
ENCODING 157
SWIDTH 480 0
DWIDTH 7 0
BBX 5 12 1 0
BITMAP
88
88
88
88
70
20
F8
20
F8
20
70
20
ENDCHAR
STARTCHAR char158
ENCODING 158
SWIDTH 480 0
DWIDTH 7 0
BBX 7 14 0 0
BITMAP
FE
82
82
82
82
82
82
82
82
82
82
82
82
FE
ENDCHAR
STARTCHAR char159
ENCODING 159
SWIDTH 480 0
DWIDTH 7 0
BBX 7 12 0 1
BITMAP
0C
12
10
10
10
7C
10
10
10
10
90
60
ENDCHAR
STARTCHAR char160
ENCODING 160
SWIDTH 480 0
DWIDTH 7 0
BBX 7 14 0 0
BITMAP
FE
82
82
82
82
82
82
82
82
82
82
82
82
FE
ENDCHAR
STARTCHAR char161
ENCODING 161
SWIDTH 480 0
DWIDTH 7 0
BBX 7 14 0 0
BITMAP
FE
82
82
82
82
82
82
82
82
82
82
82
82
FE
ENDCHAR
STARTCHAR char162
ENCODING 162
SWIDTH 480 0
DWIDTH 7 0
BBX 7 14 0 0
BITMAP
FE
82
82
82
82
82
82
82
82
82
82
82
82
FE
ENDCHAR
STARTCHAR char163
ENCODING 163
SWIDTH 480 0
DWIDTH 7 0
BBX 7 14 0 0
BITMAP
FE
82
82
82
82
82
82
82
82
82
82
82
82
FE
ENDCHAR
STARTCHAR char164
ENCODING 164
SWIDTH 480 0
DWIDTH 7 0
BBX 7 14 0 0
BITMAP
FE
82
82
82
82
82
82
82
82
82
82
82
82
FE
ENDCHAR
STARTCHAR char165
ENCODING 165
SWIDTH 480 0
DWIDTH 7 0
BBX 7 14 0 0
BITMAP
FE
82
82
82
82
82
82
82
82
82
82
82
82
FE
ENDCHAR
STARTCHAR char166
ENCODING 166
SWIDTH 480 0
DWIDTH 7 0
BBX 5 7 0 2
BITMAP
78
88
88
88
78
00
F8
ENDCHAR
STARTCHAR char167
ENCODING 167
SWIDTH 480 0
DWIDTH 7 0
BBX 5 7 1 2
BITMAP
70
88
88
88
70
00
F8
ENDCHAR
STARTCHAR char168
ENCODING 168
SWIDTH 480 0
DWIDTH 7 0
BBX 4 9 1 2
BITMAP
20
00
20
20
40
80
80
80
70
ENDCHAR
STARTCHAR char169
ENCODING 169
SWIDTH 480 0
DWIDTH 7 0
BBX 5 4 1 2
BITMAP
F8
80
80
80
ENDCHAR
STARTCHAR char170
ENCODING 170
SWIDTH 480 0
DWIDTH 7 0
BBX 5 4 1 2
BITMAP
F8
08
08
08
ENDCHAR
STARTCHAR char171
ENCODING 171
SWIDTH 480 0
DWIDTH 7 0
BBX 5 12 1 1
BITMAP
20
20
20
20
00
F8
00
70
10
70
40
70
ENDCHAR
STARTCHAR char172
ENCODING 172
SWIDTH 480 0
DWIDTH 7 0
BBX 5 12 1 1
BITMAP
20
20
20
20
00
F8
00
50
50
70
10
10
ENDCHAR
STARTCHAR char173
ENCODING 173
SWIDTH 480 0
DWIDTH 7 0
BBX 1 9 2 2
BITMAP
80
80
00
80
80
80
80
80
80
ENDCHAR
STARTCHAR char174
ENCODING 174
SWIDTH 480 0
DWIDTH 7 0
BBX 6 4 1 3
BITMAP
6C
90
90
6C
ENDCHAR
STARTCHAR char175
ENCODING 175
SWIDTH 480 0
DWIDTH 7 0
BBX 6 4 0 3
BITMAP
D8
24
24
D8
ENDCHAR
STARTCHAR char176
ENCODING 176
SWIDTH 480 0
DWIDTH 7 0
BBX 7 14 0 0
BITMAP
22
88
22
88
22
88
22
88
22
88
22
88
22
88
ENDCHAR
STARTCHAR char177
ENCODING 177
SWIDTH 480 0
DWIDTH 7 0
BBX 7 14 0 0
BITMAP
54
AA
54
AA
54
AA
54
AA
54
AA
54
AA
54
AA
ENDCHAR
STARTCHAR char178
ENCODING 178
SWIDTH 480 0
DWIDTH 7 0
BBX 7 14 0 0
BITMAP
6E
BC
F4
2E
FA
7E
AC
7E
DA
AE
EC
FA
B6
EE
ENDCHAR
STARTCHAR char179
ENCODING 179
SWIDTH 480 0
DWIDTH 7 0
BBX 1 14 3 0
BITMAP
80
80
80
80
80
80
80
80
80
80
80
80
80
80
ENDCHAR
STARTCHAR char180
ENCODING 180
SWIDTH 480 0
DWIDTH 7 0
BBX 4 14 0 0
BITMAP
10
10
10
10
10
10
10
F0
10
10
10
10
10
10
ENDCHAR
STARTCHAR char181
ENCODING 181
SWIDTH 480 0
DWIDTH 7 0
BBX 4 14 0 0
BITMAP
10
10
10
10
10
10
F0
10
F0
10
10
10
10
10
ENDCHAR
STARTCHAR char182
ENCODING 182
SWIDTH 480 0
DWIDTH 7 0
BBX 5 14 0 0
BITMAP
28
28
28
28
28
28
28
E8
28
28
28
28
28
28
ENDCHAR
STARTCHAR char183
ENCODING 183
SWIDTH 480 0
DWIDTH 7 0
BBX 5 7 0 0
BITMAP
F8
28
28
28
28
28
28
ENDCHAR
STARTCHAR char184
ENCODING 184
SWIDTH 480 0
DWIDTH 7 0
BBX 4 8 0 0
BITMAP
F0
10
F0
10
10
10
10
10
ENDCHAR
STARTCHAR char185
ENCODING 185
SWIDTH 480 0
DWIDTH 7 0
BBX 5 14 0 0
BITMAP
28
28
28
28
28
28
E8
08
E8
28
28
28
28
28
ENDCHAR
STARTCHAR char186
ENCODING 186
SWIDTH 480 0
DWIDTH 7 0
BBX 3 14 2 0
BITMAP
A0
A0
A0
A0
A0
A0
A0
A0
A0
A0
A0
A0
A0
A0
ENDCHAR
STARTCHAR char187
ENCODING 187
SWIDTH 480 0
DWIDTH 7 0
BBX 5 8 0 0
BITMAP
F8
08
E8
28
28
28
28
28
ENDCHAR
STARTCHAR char188
ENCODING 188
SWIDTH 480 0
DWIDTH 7 0
BBX 5 9 0 5
BITMAP
28
28
28
28
28
28
E8
08
F8
ENDCHAR
STARTCHAR char189
ENCODING 189
SWIDTH 480 0
DWIDTH 7 0
BBX 5 8 0 6
BITMAP
28
28
28
28
28
28
28
F8
ENDCHAR
STARTCHAR char190
ENCODING 190
SWIDTH 480 0
DWIDTH 7 0
BBX 4 9 0 5
BITMAP
10
10
10
10
10
10
F0
10
F0
ENDCHAR
STARTCHAR char191
ENCODING 191
SWIDTH 480 0
DWIDTH 7 0
BBX 4 7 0 0
BITMAP
F0
10
10
10
10
10
10
ENDCHAR
STARTCHAR char192
ENCODING 192
SWIDTH 480 0
DWIDTH 7 0
BBX 4 8 3 6
BITMAP
80
80
80
80
80
80
80
F0
ENDCHAR
STARTCHAR char193
ENCODING 193
SWIDTH 480 0
DWIDTH 7 0
BBX 7 8 0 6
BITMAP
10
10
10
10
10
10
10
FE
ENDCHAR
STARTCHAR char194
ENCODING 194
SWIDTH 480 0
DWIDTH 7 0
BBX 7 7 0 0
BITMAP
FE
10
10
10
10
10
10
ENDCHAR
STARTCHAR char195
ENCODING 195
SWIDTH 480 0
DWIDTH 7 0
BBX 4 14 3 0
BITMAP
80
80
80
80
80
80
80
F0
80
80
80
80
80
80
ENDCHAR
STARTCHAR char196
ENCODING 196
SWIDTH 480 0
DWIDTH 7 0
BBX 7 1 0 6
BITMAP
FE
ENDCHAR
STARTCHAR char197
ENCODING 197
SWIDTH 480 0
DWIDTH 7 0
BBX 7 14 0 0
BITMAP
10
10
10
10
10
10
10
FE
10
10
10
10
10
10
ENDCHAR
STARTCHAR char198
ENCODING 198
SWIDTH 480 0
DWIDTH 7 0
BBX 4 14 3 0
BITMAP
80
80
80
80
80
F0
80
F0
80
80
80
80
80
80
ENDCHAR
STARTCHAR char199
ENCODING 199
SWIDTH 480 0
DWIDTH 7 0
BBX 5 14 2 0
BITMAP
A0
A0
A0
A0
A0
A0
A0
B8
A0
A0
A0
A0
A0
A0
ENDCHAR
STARTCHAR char200
ENCODING 200
SWIDTH 480 0
DWIDTH 7 0
BBX 5 9 2 5
BITMAP
A0
A0
A0
A0
A0
A0
B8
80
F8
ENDCHAR
STARTCHAR char201
ENCODING 201
SWIDTH 480 0
DWIDTH 7 0
BBX 5 8 2 0
BITMAP
F8
80
B8
A0
A0
A0
A0
A0
ENDCHAR
STARTCHAR char202
ENCODING 202
SWIDTH 480 0
DWIDTH 7 0
BBX 7 6 0 5
BITMAP
28
28
28
EE
00
FE
ENDCHAR
STARTCHAR char203
ENCODING 203
SWIDTH 480 0
DWIDTH 7 0
BBX 7 8 0 0
BITMAP
FE
00
EE
28
28
28
28
28
ENDCHAR
STARTCHAR char204
ENCODING 204
SWIDTH 480 0
DWIDTH 7 0
BBX 5 14 2 0
BITMAP
A0
A0
A0
A0
A0
A0
B8
80
B8
A0
A0
A0
A0
A0
ENDCHAR
STARTCHAR char205
ENCODING 205
SWIDTH 480 0
DWIDTH 7 0
BBX 7 3 0 5
BITMAP
FE
00
FE
ENDCHAR
STARTCHAR char206
ENCODING 206
SWIDTH 480 0
DWIDTH 7 0
BBX 7 14 0 0
BITMAP
28
28
28
28
28
28
EE
00
EE
28
28
28
28
28
ENDCHAR
STARTCHAR char207
ENCODING 207
SWIDTH 480 0
DWIDTH 7 0
BBX 7 9 0 5
BITMAP
10
10
10
10
10
10
FE
00
FE
ENDCHAR
STARTCHAR char208
ENCODING 208
SWIDTH 480 0
DWIDTH 7 0
BBX 7 8 0 6
BITMAP
28
28
28
28
28
28
28
FE
ENDCHAR
STARTCHAR char209
ENCODING 209
SWIDTH 480 0
DWIDTH 7 0
BBX 7 8 0 0
BITMAP
FE
00
FE
20
20
20
20
20
ENDCHAR
STARTCHAR char210
ENCODING 210
SWIDTH 480 0
DWIDTH 7 0
BBX 7 7 0 0
BITMAP
FE
28
28
28
28
28
28
ENDCHAR
STARTCHAR char211
ENCODING 211
SWIDTH 480 0
DWIDTH 7 0
BBX 5 8 2 6
BITMAP
A0
A0
A0
A0
A0
A0
A0
F8
ENDCHAR
STARTCHAR char212
ENCODING 212
SWIDTH 480 0
DWIDTH 7 0
BBX 5 9 2 5
BITMAP
80
80
80
80
80
80
F8
80
F8
ENDCHAR
STARTCHAR char213
ENCODING 213
SWIDTH 480 0
DWIDTH 7 0
BBX 5 8 2 0
BITMAP
F8
80
F8
80
80
80
80
80
ENDCHAR
STARTCHAR char214
ENCODING 214
SWIDTH 480 0
DWIDTH 7 0
BBX 5 7 2 0
BITMAP
F8
A0
A0
A0
A0
A0
A0
ENDCHAR
STARTCHAR char215
ENCODING 215
SWIDTH 480 0
DWIDTH 7 0
BBX 7 14 0 0
BITMAP
28
28
28
28
28
28
28
FE
28
28
28
28
28
28
ENDCHAR
STARTCHAR char216
ENCODING 216
SWIDTH 480 0
DWIDTH 7 0
BBX 7 14 0 0
BITMAP
10
10
10
10
10
10
FE
10
FE
10
10
10
10
10
ENDCHAR
STARTCHAR char217
ENCODING 217
SWIDTH 480 0
DWIDTH 7 0
BBX 4 8 0 6
BITMAP
10
10
10
10
10
10
10
F0
ENDCHAR
STARTCHAR char218
ENCODING 218
SWIDTH 480 0
DWIDTH 7 0
BBX 4 7 3 0
BITMAP
F0
80
80
80
80
80
80
ENDCHAR
STARTCHAR char219
ENCODING 219
SWIDTH 480 0
DWIDTH 7 0
BBX 7 14 0 0
BITMAP
FE
FE
FE
FE
FE
FE
FE
FE
FE
FE
FE
FE
FE
FE
ENDCHAR
STARTCHAR char220
ENCODING 220
SWIDTH 480 0
DWIDTH 7 0
BBX 7 7 0 0
BITMAP
FE
FE
FE
FE
FE
FE
FE
ENDCHAR
STARTCHAR char221
ENCODING 221
SWIDTH 480 0
DWIDTH 7 0
BBX 4 14 0 0
BITMAP
F0
F0
F0
F0
F0
F0
F0
F0
F0
F0
F0
F0
F0
F0
ENDCHAR
STARTCHAR char222
ENCODING 222
SWIDTH 480 0
DWIDTH 7 0
BBX 3 14 4 0
BITMAP
E0
E0
E0
E0
E0
E0
E0
E0
E0
E0
E0
E0
E0
E0
ENDCHAR
STARTCHAR char223
ENCODING 223
SWIDTH 480 0
DWIDTH 7 0
BBX 7 7 0 7
BITMAP
FE
FE
FE
FE
FE
FE
FE
ENDCHAR
STARTCHAR char224
ENCODING 224
SWIDTH 480 0
DWIDTH 7 0
BBX 5 6 0 2
BITMAP
68
90
90
90
90
68
ENDCHAR
STARTCHAR char225
ENCODING 225
SWIDTH 480 0
DWIDTH 7 0
BBX 5 9 0 1
BITMAP
70
88
90
A0
90
A0
80
80
80
ENDCHAR
STARTCHAR char226
ENCODING 226
SWIDTH 480 0
DWIDTH 7 0
BBX 5 9 0 1
BITMAP
F8
88
80
80
80
80
80
80
80
ENDCHAR
STARTCHAR char227
ENCODING 227
SWIDTH 480 0
DWIDTH 7 0
BBX 6 6 0 2
BITMAP
FC
54
50
50
50
50
ENDCHAR
STARTCHAR char228
ENCODING 228
SWIDTH 480 0
DWIDTH 7 0
BBX 4 8 1 2
BITMAP
F0
80
40
10
20
40
80
F0
ENDCHAR
STARTCHAR char229
ENCODING 229
SWIDTH 480 0
DWIDTH 7 0
BBX 5 6 0 2
BITMAP
78
90
90
90
90
60
ENDCHAR
STARTCHAR char230
ENCODING 230
SWIDTH 480 0
DWIDTH 7 0
BBX 5 9 0 0
BITMAP
48
48
48
48
48
50
60
40
80
ENDCHAR
STARTCHAR char231
ENCODING 231
SWIDTH 480 0
DWIDTH 7 0
BBX 6 7 0 2
BITMAP
2C
50
90
10
10
10
10
ENDCHAR
STARTCHAR char232
ENCODING 232
SWIDTH 480 0
DWIDTH 7 0
BBX 6 10 0 1
BITMAP
F8
20
20
70
88
88
70
20
20
FC
ENDCHAR
STARTCHAR char233
ENCODING 233
SWIDTH 480 0
DWIDTH 7 0
BBX 5 8 0 2
BITMAP
70
88
88
A8
D8
88
88
70
ENDCHAR
STARTCHAR char234
ENCODING 234
SWIDTH 480 0
DWIDTH 7 0
BBX 6 7 0 2
BITMAP
78
84
84
84
48
48
CC
ENDCHAR
STARTCHAR char235
ENCODING 235
SWIDTH 480 0
DWIDTH 7 0
BBX 5 8 0 2
BITMAP
60
80
80
70
88
88
88
70
ENDCHAR
STARTCHAR char236
ENCODING 236
SWIDTH 480 0
DWIDTH 7 0
BBX 6 6 0 2
BITMAP
78
A4
94
A4
94
78
ENDCHAR
STARTCHAR char237
ENCODING 237
SWIDTH 480 0
DWIDTH 7 0
BBX 6 10 0 0
BITMAP
04
04
78
8C
94
A4
C4
78
80
80
ENDCHAR
STARTCHAR char238
ENCODING 238
SWIDTH 480 0
DWIDTH 7 0
BBX 5 9 0 1
BITMAP
38
40
80
80
F0
80
80
40
38
ENDCHAR
STARTCHAR char239
ENCODING 239
SWIDTH 480 0
DWIDTH 7 0
BBX 5 9 0 1
BITMAP
70
88
88
88
88
88
88
88
88
ENDCHAR
STARTCHAR char240
ENCODING 240
SWIDTH 480 0
DWIDTH 7 0
BBX 5 5 0 3
BITMAP
F8
00
F8
00
F8
ENDCHAR
STARTCHAR char241
ENCODING 241
SWIDTH 480 0
DWIDTH 7 0
BBX 5 6 1 4
BITMAP
20
20
F8
20
00
F8
ENDCHAR
STARTCHAR char242
ENCODING 242
SWIDTH 480 0
DWIDTH 7 0
BBX 4 9 1 2
BITMAP
80
40
20
10
20
40
80
00
F0
ENDCHAR
STARTCHAR char243
ENCODING 243
SWIDTH 480 0
DWIDTH 7 0
BBX 4 9 1 2
BITMAP
10
20
40
80
40
20
10
00
F0
ENDCHAR
STARTCHAR char244
ENCODING 244
SWIDTH 480 0
DWIDTH 7 0
BBX 3 8 1 1
BITMAP
40
A0
A0
80
80
80
80
80
ENDCHAR
STARTCHAR char245
ENCODING 245
SWIDTH 480 0
DWIDTH 7 0
BBX 3 8 0 1
BITMAP
20
20
20
20
20
A0
A0
40
ENDCHAR
STARTCHAR char246
ENCODING 246
SWIDTH 480 0
DWIDTH 7 0
BBX 3 7 0 2
BITMAP
40
40
00
E0
00
40
40
ENDCHAR
STARTCHAR char247
ENCODING 247
SWIDTH 480 0
DWIDTH 7 0
BBX 4 5 0 3
BITMAP
50
A0
00
50
A0
ENDCHAR
STARTCHAR char248
ENCODING 248
SWIDTH 480 0
DWIDTH 7 0
BBX 3 4 1 6
BITMAP
E0
40
A0
40
ENDCHAR
STARTCHAR char249
ENCODING 249
SWIDTH 480 0
DWIDTH 7 0
BBX 2 2 1 3
BITMAP
C0
C0
ENDCHAR
STARTCHAR char250
ENCODING 250
SWIDTH 480 0
DWIDTH 7 0
BBX 2 1 1 3
BITMAP
C0
ENDCHAR
STARTCHAR char251
ENCODING 251
SWIDTH 480 0
DWIDTH 7 0
BBX 6 11 0 0
BITMAP
3C
20
20
20
20
20
20
20
A0
60
20
ENDCHAR
STARTCHAR char252
ENCODING 252
SWIDTH 480 0
DWIDTH 7 0
BBX 5 5 0 3
BITMAP
B0
C8
88
88
88
ENDCHAR
STARTCHAR char253
ENCODING 253
SWIDTH 480 0
DWIDTH 7 0
BBX 4 6 0 3
BITMAP
80
40
20
20
40
F0
ENDCHAR
STARTCHAR char254
ENCODING 254
SWIDTH 480 0
DWIDTH 7 0
BBX 3 4 0 2
BITMAP
E0
E0
E0
E0
ENDCHAR
STARTCHAR char255
ENCODING 255
SWIDTH 480 0
DWIDTH 7 0
BBX 0 0 0 0
BITMAP
ENDCHAR
ENDFONT
